# xmcd
#
# Track frame offsets:
#	150
#	10446
#	23490
#	35197
#	45820
#	56564
#	72772
#	85879
#	94746
#	107364
#	119907
#	131638
#	144045
#	158743
#	169140
#	181191
#	192428
#	202522
#	217539
#	231143
#	241420
#	250995
#	262449
#	275236
#	287648
#	299672
#	314974
#	323789
#	334045
#	347008
#
# Disc length: 4791 seconds
# Revision: 0
# Processed by: cddbd v1.5.2PL0 Copyright (c) Steve Scherf et al.
# Submitted via: dBpowerAMP V12.0
#
DISCID=c012b51e
DTITLE=Connie Francis - Country And Western Connie Francis Style
DYEAR=2015
DGENRE=Country
TTITLE0=Singing The Blues
TTITLE1=Tennessee Waltz
TTITLE2=Young Love
TTITLE3=Your Cheating Heart
TTITLE4=Bye Bye Love
TTITLE5=Peace In The Valley
TTITLE6=My Special Angel
TTITLE7=Hearts Of Stone
TTITLE8=Half As Much
TTITLE9=Cold Cold Heart
TTITLE10=Let Me Go Lover
TTITLE11=Anytime
TTITLE12=I Really Don't Want To Know
TTITLE13=Oh Lonesome Me
TTITLE14=I Fall To Pieces
TTITLE15=Someday (You'll Want Me To Want You)
TTITLE16=I Walk The Line
TTITLE17=He Thinks I Still Care
TTITLE18=She'll Have To Go
TTITLE19=I'm Movin' On
TTITLE20=I Don't Hurt Anymore
TTITLE21=I'm A Fool To Care
TTITLE22=I Can't Stop Loving You
TTITLE23=Heartaches By The Number
TTITLE24=Everybody's Somebody's Fool
TTITLE25=High Noon (Do Not Forsake Me)
TTITLE26=Come On Jerry
TTITLE27=Careless Love
TTITLE28=Second Hand Love
TTITLE29=I Was Such A Fool (To Fall In Love With You)
EXTD=
EXTT0=
EXTT1=
EXTT2=
EXTT3=
EXTT4=
EXTT5=
EXTT6=
EXTT7=
EXTT8=
EXTT9=
EXTT10=
EXTT11=
EXTT12=
EXTT13=
EXTT14=
EXTT15=
EXTT16=
EXTT17=
EXTT18=
EXTT19=
EXTT20=
EXTT21=
EXTT22=
EXTT23=
EXTT24=
EXTT25=
EXTT26=
EXTT27=
EXTT28=
EXTT29=
PLAYORDER=
